<?xml version="1.0" encoding="UTF-8"?>
<svg id="Layer_1" data-name="Layer 1" xmlns="http://www.w3.org/2000/svg" xmlns:xlink="http://www.w3.org/1999/xlink" viewBox="0 0 1134.82 472.76">
  <defs>
    <style>
      .cls-1 {
        fill: url(#linear-gradient-8);
      }

      .cls-2 {
        fill: url(#linear-gradient-7);
      }

      .cls-3 {
        fill: url(#linear-gradient-5);
      }

      .cls-4 {
        fill: url(#linear-gradient-6);
      }

      .cls-5 {
        fill: url(#linear-gradient-9);
      }

      .cls-6 {
        fill: url(#linear-gradient-4);
      }

      .cls-7 {
        fill: url(#linear-gradient-3);
      }

      .cls-8 {
        fill: url(#linear-gradient-2);
      }

      .cls-9 {
        fill: #0277bf;
      }

      .cls-10 {
        fill: url(#linear-gradient);
      }

      .cls-11 {
        fill: url(#linear-gradient-43);
      }

      .cls-12 {
        fill: url(#linear-gradient-40);
      }

      .cls-13 {
        fill: url(#linear-gradient-41);
      }

      .cls-14 {
        fill: url(#linear-gradient-42);
      }

      .cls-15 {
        fill: url(#linear-gradient-49);
      }

      .cls-16 {
        fill: url(#linear-gradient-48);
      }

      .cls-17 {
        fill: url(#linear-gradient-45);
      }

      .cls-18 {
        fill: url(#linear-gradient-47);
      }

      .cls-19 {
        fill: url(#linear-gradient-44);
      }

      .cls-20 {
        fill: url(#linear-gradient-46);
      }

      .cls-21 {
        fill: url(#linear-gradient-10);
      }

      .cls-22 {
        fill: url(#linear-gradient-11);
      }

      .cls-23 {
        fill: url(#linear-gradient-12);
      }

      .cls-24 {
        fill: url(#linear-gradient-13);
      }

      .cls-25 {
        fill: url(#linear-gradient-19);
      }

      .cls-26 {
        fill: url(#linear-gradient-14);
      }

      .cls-27 {
        fill: url(#linear-gradient-21);
      }

      .cls-28 {
        fill: url(#linear-gradient-20);
      }

      .cls-29 {
        fill: url(#linear-gradient-22);
      }

      .cls-30 {
        fill: url(#linear-gradient-23);
      }

      .cls-31 {
        fill: url(#linear-gradient-28);
      }

      .cls-32 {
        fill: url(#linear-gradient-25);
      }

      .cls-33 {
        fill: url(#linear-gradient-32);
      }

      .cls-34 {
        fill: url(#linear-gradient-31);
      }

      .cls-35 {
        fill: url(#linear-gradient-33);
      }

      .cls-36 {
        fill: url(#linear-gradient-30);
      }

      .cls-37 {
        fill: url(#linear-gradient-15);
      }

      .cls-38 {
        fill: url(#linear-gradient-16);
      }

      .cls-39 {
        fill: url(#linear-gradient-17);
      }

      .cls-40 {
        fill: url(#linear-gradient-18);
      }

      .cls-41 {
        fill: url(#linear-gradient-35);
      }

      .cls-42 {
        fill: url(#linear-gradient-34);
      }

      .cls-43 {
        fill: url(#linear-gradient-36);
      }

      .cls-44 {
        fill: url(#linear-gradient-38);
      }

      .cls-45 {
        fill: url(#linear-gradient-27);
      }

      .cls-46 {
        fill: url(#linear-gradient-24);
      }

      .cls-47 {
        fill: url(#linear-gradient-26);
      }

      .cls-48 {
        fill: url(#linear-gradient-29);
      }

      .cls-49 {
        fill: url(#linear-gradient-37);
      }

      .cls-50 {
        fill: url(#linear-gradient-39);
      }

      .cls-51 {
        fill: url(#linear-gradient-57);
      }

      .cls-52 {
        fill: url(#linear-gradient-58);
      }

      .cls-53 {
        fill: url(#linear-gradient-59);
      }

      .cls-54 {
        fill: url(#linear-gradient-53);
      }

      .cls-55 {
        fill: url(#linear-gradient-54);
      }

      .cls-56 {
        fill: url(#linear-gradient-55);
      }

      .cls-57 {
        fill: url(#linear-gradient-56);
      }

      .cls-58 {
        fill: url(#linear-gradient-50);
      }

      .cls-59 {
        fill: url(#linear-gradient-51);
      }

      .cls-60 {
        fill: url(#linear-gradient-52);
      }

      .cls-61 {
        fill: url(#linear-gradient-63);
      }

      .cls-62 {
        fill: url(#linear-gradient-60);
      }

      .cls-63 {
        fill: url(#linear-gradient-61);
      }

      .cls-64 {
        fill: url(#linear-gradient-62);
      }
    </style>
    <linearGradient id="linear-gradient" x1="68.29" y1="289.83" x2="238.12" y2="289.83" gradientUnits="userSpaceOnUse">
      <stop offset="0" stop-color="#cce0f4"/>
      <stop offset=".06" stop-color="#c2dcf2"/>
      <stop offset=".17" stop-color="#a9d2ee"/>
      <stop offset=".31" stop-color="#7fc2e7"/>
      <stop offset=".46" stop-color="#46abdd"/>
      <stop offset=".57" stop-color="#1e9cd7"/>
      <stop offset=".87" stop-color="#6e1fff"/>
      <stop offset=".99" stop-color="#57009f"/>
    </linearGradient>
    <linearGradient id="linear-gradient-2" x1="0" y1="217.31" x2="391.89" y2="217.31" xlink:href="#linear-gradient"/>
    <linearGradient id="linear-gradient-3" x1="244.97" y1="365.11" x2="472.34" y2="365.11" xlink:href="#linear-gradient"/>
    <linearGradient id="linear-gradient-4" x1="171.26" y1="132.87" x2="438.97" y2="132.87" xlink:href="#linear-gradient"/>
    <linearGradient id="linear-gradient-5" x1="141.18" y1="180.51" x2="461.39" y2="180.51" xlink:href="#linear-gradient"/>
    <linearGradient id="linear-gradient-6" x1="248.01" y1="307.43" x2="303.96" y2="307.43" xlink:href="#linear-gradient"/>
    <linearGradient id="linear-gradient-7" x1="128.98" y1="100.46" x2="327.96" y2="100.46" xlink:href="#linear-gradient"/>
    <linearGradient id="linear-gradient-8" x1="183.05" y1="117.48" x2="371.96" y2="117.48" xlink:href="#linear-gradient"/>
    <linearGradient id="linear-gradient-9" x1="273.4" y1="252.01" x2="372.03" y2="252.01" xlink:href="#linear-gradient"/>
    <linearGradient id="linear-gradient-10" x1="191.02" y1="344.31" x2="258.83" y2="344.31" xlink:href="#linear-gradient"/>
    <linearGradient id="linear-gradient-11" x1="295.99" y1="191.93" x2="465.79" y2="191.93" xlink:href="#linear-gradient"/>
    <linearGradient id="linear-gradient-12" x1="231.93" y1="323.4" x2="280.52" y2="323.4" xlink:href="#linear-gradient"/>
    <linearGradient id="linear-gradient-13" x1="225.15" y1="183.46" x2="376.58" y2="183.46" xlink:href="#linear-gradient"/>
    <linearGradient id="linear-gradient-14" x1="206.02" y1="378.64" x2="273.13" y2="378.64" xlink:href="#linear-gradient"/>
    <linearGradient id="linear-gradient-15" x1="234.51" y1="275.5" x2="339.07" y2="275.5" xlink:href="#linear-gradient"/>
    <linearGradient id="linear-gradient-16" x1="234.37" y1="217.67" x2="386.7" y2="217.67" xlink:href="#linear-gradient"/>
    <linearGradient id="linear-gradient-17" x1="143.21" y1="87.13" x2="272.06" y2="87.13" xlink:href="#linear-gradient"/>
    <linearGradient id="linear-gradient-18" x1="345.4" y1="165.6" x2="433.78" y2="165.6" xlink:href="#linear-gradient"/>
    <linearGradient id="linear-gradient-19" x1="212.91" y1="297.15" x2="249.57" y2="297.15" xlink:href="#linear-gradient"/>
    <linearGradient id="linear-gradient-20" x1="156.26" y1="122.02" x2="254.33" y2="122.02" xlink:href="#linear-gradient"/>
    <linearGradient id="linear-gradient-21" x1="243.81" y1="159.39" x2="342.09" y2="159.39" xlink:href="#linear-gradient"/>
    <linearGradient id="linear-gradient-22" x1="505.12" y1="164.02" x2="526.26" y2="164.02" xlink:href="#linear-gradient"/>
    <linearGradient id="linear-gradient-23" x1="332.3" y1="254.29" x2="409.82" y2="254.29" xlink:href="#linear-gradient"/>
    <linearGradient id="linear-gradient-24" x1="385.73" y1="156.85" x2="417.67" y2="156.85" xlink:href="#linear-gradient"/>
    <linearGradient id="linear-gradient-25" x1="306.73" y1="346.75" x2="318.18" y2="346.75" xlink:href="#linear-gradient"/>
    <linearGradient id="linear-gradient-26" x1="221.89" y1="209.86" x2="269.99" y2="209.86" xlink:href="#linear-gradient"/>
    <linearGradient id="linear-gradient-27" x1="220.89" y1="243.79" x2="267.98" y2="243.79" xlink:href="#linear-gradient"/>
    <linearGradient id="linear-gradient-28" x1="165.16" y1="178.09" x2="227.65" y2="178.09" xlink:href="#linear-gradient"/>
    <linearGradient id="linear-gradient-29" x1="447.03" y1="106.1" x2="470.82" y2="106.1" xlink:href="#linear-gradient"/>
    <linearGradient id="linear-gradient-30" x1="418.94" y1="240.05" x2="453.97" y2="240.05" xlink:href="#linear-gradient"/>
    <linearGradient id="linear-gradient-31" x1="221.9" y1="409.4" x2="232.27" y2="409.4" xlink:href="#linear-gradient"/>
    <linearGradient id="linear-gradient-32" x1="478.8" y1="191.32" x2="502.59" y2="191.32" xlink:href="#linear-gradient"/>
    <linearGradient id="linear-gradient-33" x1="347.95" y1="165.25" x2="371.93" y2="165.25" xlink:href="#linear-gradient"/>
    <linearGradient id="linear-gradient-34" x1="467.38" y1="149.97" x2="482.15" y2="149.97" xlink:href="#linear-gradient"/>
    <linearGradient id="linear-gradient-35" x1="577.92" y1="153.96" x2="590.53" y2="153.96" xlink:href="#linear-gradient"/>
    <linearGradient id="linear-gradient-36" x1="257.33" y1="387.09" x2="273.25" y2="387.09" xlink:href="#linear-gradient"/>
    <linearGradient id="linear-gradient-37" x1="295.35" y1="148.43" x2="313.69" y2="148.43" xlink:href="#linear-gradient"/>
    <linearGradient id="linear-gradient-38" x1="403.83" y1="79.21" x2="413.73" y2="79.21" xlink:href="#linear-gradient"/>
    <linearGradient id="linear-gradient-39" x1="228.04" y1="115.89" x2="238.09" y2="115.89" xlink:href="#linear-gradient"/>
    <linearGradient id="linear-gradient-40" x1="326.71" y1="181.18" x2="335.46" y2="181.18" xlink:href="#linear-gradient"/>
    <linearGradient id="linear-gradient-41" x1="540.75" y1="164.64" x2="556.77" y2="164.64" xlink:href="#linear-gradient"/>
    <linearGradient id="linear-gradient-42" x1="513.61" y1="213.82" x2="520.94" y2="213.82" xlink:href="#linear-gradient"/>
    <linearGradient id="linear-gradient-43" x1="461.63" y1="219.62" x2="468.59" y2="219.62" xlink:href="#linear-gradient"/>
    <linearGradient id="linear-gradient-44" x1="487.5" y1="119.17" x2="494.66" y2="119.17" xlink:href="#linear-gradient"/>
    <linearGradient id="linear-gradient-45" x1="515.57" y1="139.05" x2="521.98" y2="139.05" xlink:href="#linear-gradient"/>
    <linearGradient id="linear-gradient-46" x1="534.81" y1="136.9" x2="540.99" y2="136.9" xlink:href="#linear-gradient"/>
    <linearGradient id="linear-gradient-47" x1="272.99" y1="151.17" x2="278.73" y2="151.17" xlink:href="#linear-gradient"/>
    <linearGradient id="linear-gradient-48" x1="173.7" y1="151.02" x2="179.5" y2="151.02" xlink:href="#linear-gradient"/>
    <linearGradient id="linear-gradient-49" x1="282.12" y1="382.32" x2="287.89" y2="382.32" xlink:href="#linear-gradient"/>
    <linearGradient id="linear-gradient-50" x1="287.2" y1="268.43" x2="292.92" y2="268.43" xlink:href="#linear-gradient"/>
    <linearGradient id="linear-gradient-51" x1="210.09" y1="115.47" x2="215.92" y2="115.47" xlink:href="#linear-gradient"/>
    <linearGradient id="linear-gradient-52" x1="363.56" y1="96.03" x2="369.28" y2="96.03" xlink:href="#linear-gradient"/>
    <linearGradient id="linear-gradient-53" x1="264.78" y1="313.01" x2="270.61" y2="313.01" xlink:href="#linear-gradient"/>
    <linearGradient id="linear-gradient-54" x1="263.27" y1="73.35" x2="269.44" y2="73.35" xlink:href="#linear-gradient"/>
    <linearGradient id="linear-gradient-55" x1="347.64" y1="190.02" x2="353.86" y2="190.02" xlink:href="#linear-gradient"/>
    <linearGradient id="linear-gradient-56" x1="215.17" y1="247.63" x2="221.08" y2="247.63" xlink:href="#linear-gradient"/>
    <linearGradient id="linear-gradient-57" x1="408.96" y1="137.03" x2="415.18" y2="137.03" xlink:href="#linear-gradient"/>
    <linearGradient id="linear-gradient-58" x1="223.19" y1="231.13" x2="229.33" y2="231.13" xlink:href="#linear-gradient"/>
    <linearGradient id="linear-gradient-59" x1="451.51" y1="106.08" x2="467.24" y2="106.08" xlink:href="#linear-gradient"/>
    <linearGradient id="linear-gradient-60" x1="482.04" y1="190.93" x2="499.45" y2="190.93" xlink:href="#linear-gradient"/>
    <linearGradient id="linear-gradient-61" x1="352.12" y1="165.97" x2="368.98" y2="165.97" xlink:href="#linear-gradient"/>
    <linearGradient id="linear-gradient-62" x1="259.95" y1="386.78" x2="270.99" y2="386.78" xlink:href="#linear-gradient"/>
    <linearGradient id="linear-gradient-63" x1="298.6" y1="148.56" x2="310.26" y2="148.56" xlink:href="#linear-gradient"/>
  </defs>
  <g>
    <path class="cls-10" d="M115.16,118.07c-2.16,10.04.14,21.19,5.59,29.88,1.2,1.91,7.3,9.38,8.92,10.07,1.18.51,1.99-.3,1.48-1.48-.6-1.38-4.98-5.53-6.53-8.46-3.39-6.44-5.02-13.1-4.33-20.41.1-1,.4-4.7,1.86-4.61.09,8.48,3.53,16.47,7.98,23.5,5.72,9.06,23.02,26.47,32.32,31.61,9.15,5.06,17.6,6.99,27.64,2.84-7.98,10.4-20.43,6.7-30.97,3,7.45,7.53,19.8,11.39,29.97,6.99-1.68,3.28-5.19,4.82-8.45,6.04l-9.52.94c5.15,1.97,9.74,3.53,15.21,1.74,6.68-2.18,10.22-9.9,18.23-10.75,5.34-.57,10.27,1.12,13.34,5.69,8.87,13.17-.99,32.82-11.91,41.71-6.25,5.09-8.58,1.54-7.77,11.95,2.41,31.25,42.94,48.52,39.72,77.94-3.21,29.3-50.68,53.15-70.83,72.02-17.62,16.5-30.96,38.56-30.97,63.45-1.6-.53-1.93-4.57-2.31-6.17-6.45-27.23,4.69-51.54,20.9-72.65,13.5-17.57,22.9-19.56,20.37-45.55-1.61-16.52-16.31-43.41-34.45-45.47-13.26-1.51-34.37,6.25-45.03,2.07-12.98-5.08-4.02-19.01-5.57-24.34-1.14-3.89-14.39-4.99-4.85-14.69-2.88-.05-7.53-3.9-7.78-6.66-.31-3.35,5.95-6.01,4.65-10.63-1.03-3.68-13.76-5.44-13.78-13.2-.01-4.5,7.35-8.08,9.96-10.94,2.75-3.02,15.22-19.13,12.86-22.44-3.68-.72-8.23-2.86-8.9-7.08,1.95,1.66,8.98,3.61,9.91.37.39-1.38-2.1-14.59-1.9-18.85.64-13.94,7.93-30.43,17-40.94.88-1.02,6.89-7.7,7.96-6.52Z"/>
    <path class="cls-8" d="M219.86.48c51.08-3.08,100.97,8.77,143.98,36.26,3.86,2.46,26.53,18.18,27.57,20.41,1.63,3.49-1.14,6.86-4.79,5.84C293.44-19.89,148.45-9.06,65.7,83.09c-78.25,87.14-77.85,221.25.49,308.24,13.22,14.68,29.01,26.78,44.85,38.13,1.04,3.39-1.93,5.37-5.14,5.16-41.26-28.11-74.08-68.41-91.37-115.5C-39.47,172.1,63.31,9.93,219.86.48Z"/>
    <path class="cls-7" d="M471.57,258.17c1.99,1.71-.41,13.77-.91,17.08-14.53,96.56-93.24,177.45-189.46,194.16-5.11.89-33.66,5.25-35.72,2.39-1.19-2.21-.16-5.15,2.27-5.86,3.71-1.09,13.95-.61,18.77-1.21,106.05-13.41,189.4-98.96,198.98-205.56l2.19-1.7,3.89.71Z"/>
    <path class="cls-6" d="M271.02,150.04c.2-.13.14-3.03,2.69-3.81,8.91-2.74,9.59,9.96,2.65,10.59-2.75.25-4.24-3.27-6.86-3.77-4.81-.91-18.92-.9-24.91-1.07-20.05-.56-39.99,1.76-60.04.99-3.28-.16-4.53,3.93-7.76,3.79-8.72-.36-6.32-12.96,1.61-10.56,2.19.66,2.18,3.34,6.15,3.88,17.66,2.37,40.69-1.84,58.95-.1,6.8-1.25,16.85-20.03,23.97-20.98,13.51-1.8,31.02,1.43,44.99.07l11.03,9.95h37.92s25.95-25.55,25.95-25.55l36.99.58c3.67-.73,2.92-6.17,9.96-4.99,10.93,1.83.34,21.06-8.14,6.98l-37.56.23c-1.29.38-13.37,12.7-15.2,14.77-2.14,2.41-5.33,6.03-6.48,9.01h14.49c.5,0,2.59-3.37,4.22-3.83,8.52-2.43,10.31,9.75,1.78,10.75l-6.99-4.93h-57.93s-12.04-10.95-12.04-10.95c-12.18.83-25.95-1.22-37.92-.01-9.23.93-12.02,7.99-18.54,13.45l-3.95,5.52c3.3-.7,19.54.93,20.98,0ZM179.5,151.02c0-1.6-1.3-2.9-2.9-2.9s-2.9,1.3-2.9,2.9,1.3,2.9,2.9,2.9,2.9-1.3,2.9-2.9ZM278.73,151.17c0-1.59-1.29-2.87-2.87-2.87s-2.87,1.29-2.87,2.87,1.29,2.87,2.87,2.87,2.87-1.29,2.87-2.87Z"/>
    <path class="cls-3" d="M149.9,135.29c1.7,2.58.61,5.58,2.18,8.31.69,1.21,15.63,15.89,16.75,16.22l47.59.37,23.51,24.3,44.07.04,39.68,40.24,83.69.18c4.75-.91,17.82-19.45,22.21-20.75,5.08-1.51,14.6,1.04,19.57-.18,1.44-.35.64-4.28,6.17-4.09,8.95.31,7.23,10.41-.04,11.03-5.02.43-4.55-4-7.1-4.79-1.78-.55-14.76-.52-16.6.02-4.39,1.3-17.46,19.84-22.21,20.75l-87.69-.18-38.69-39.24-45.27-.68-22.33-23.63-47.56-.39c-3.68-1.09-13.87-15.37-18.13-17.83-1.96-1.13-3.79-.7-5.51-1.49-6.93-3.18-.57-12.8,5.71-8.2Z"/>
    <path class="cls-4" d="M292,330.36c.6,2.1,6.49,3.82,2.57,8.56-5.11,6.17-12.09-.12-9.08-6.09.72-1.43,3.25-1.54,3.53-2.67.54-2.2.46-25.14-.04-27.75-1.1-5.73-10.67-9.38-11.76-14.22-1.85-8.28,1.11-20.78-.42-29.55-6.04-6.93-12.86-13.11-19.29-19.67-1.16-1.18-1.88-3.26-2.95-4.1-1.26-1-3.83.3-5.28-1.14-3.99-3.97,2.31-8.73,5.5-5.52,1.95,1.96-.04,4.92.35,5.58.13.23,2.08.81,2.91,1.61,7.31,7,14.16,14.51,21.44,21.55,3.25,12.88-6.02,32.56,9.51,38.94v-21.48c0-.94-4.44-.59-3.93-6.91.84-10.38,18.73-.75,6.25,6.84l.7,25.02,11.76,13.21.18,32.74c-6.98,11.55-19.88,11.48-17.84,27.9.66,5.29,3.37,4.55,4.23,7.76,2.04,7.63-10.37,9.76-11.11,1.16-.31-3.62,3.96-4.16,4.6-5.99,1.27-3.65-1.07-10.46.68-14.31,2.24-4.94,15.38-12.06,16.41-18.56,1.37-8.69-.72-20.65-.15-29.71l-8.79-8.7c1.21,6.6-1.63,19.78,0,25.48ZM292.92,268.43c0-1.58-1.28-2.86-2.86-2.86s-2.86,1.28-2.86,2.86,1.28,2.86,2.86,2.86,2.86-1.28,2.86-2.86ZM287.89,382.32c0-1.59-1.29-2.88-2.88-2.88s-2.88,1.29-2.88,2.88,1.29,2.88,2.88,2.88,2.88-1.29,2.88-2.88Z"/>
    <path class="cls-2" d="M178.11,114.07h29.97c.43,0-.13-5.06,6.44-4,6.96,1.13,3.28,14.1-4.23,10.27-1.86-.95-1.62-3.19-3.68-3.35l-61.95.1c-1.64.31-5.76,4.14-6.61,5.47-1.11,1.75,0,3.34-.96,4.85-3.23,5.05-10.32,1.26-7.45-4.36,1.34-2.5,4.36-1.53,6.46-2.53s4.4-5.55,6.74-6.25c7.37-2.19,23.19,1.78,30.56-.41,3.8-1.13,8.93-11.12,12.21-11.77l84.69-.22,24.69-25.26c4.6-2.09,15.26.86,20.29-.69,2.09-.65,2.12-3.09,3.37-3.87,4.76-2.98,11.11,1.88,8.81,7.02-5.68,7.79-9.34-.24-13.02-.95-2.21-.42-14.82-.39-16.76.18l-26.38,26.56-84.69.23-8.52,8.97ZM215.92,115.47c0-1.61-1.31-2.92-2.92-2.92s-2.92,1.31-2.92,2.92,1.31,2.92,2.92,2.92,2.92-1.31,2.92-2.92Z"/>
    <path class="cls-1" d="M331.46,118.07c1.09-.31,2.47-3.75,5.03-4.02,5-.52,8.64,5.77,4.42,9.47-5.23,4.59-7.21-2.27-9.41-2.54l-69.76.29c-5.48,1.23-14.63,17.43-21.21,19.75l-46.97-.06c-1.89-.04-1.78,2.12-3.07,2.97-6.81,4.53-12.12-10.5-1.1-8.69,2.74.45,2.23,2.65,4.15,2.87,14.3,1.66,32.12-1.2,46.8-.27l19.39-19.57,32.24-.72,22.93-23.02c13.13-.21,27.44,1.67,40.51.54,6.5-.56,4.86-1.75,8.1-3.86,7.67-5,12.5,9.41,3.81,9.84-4.99.25-4.42-3.42-8.84-4.02-12.75-1.71-29.6,1.21-42.8.26l-19.69,20.77h35.47ZM369.28,96.03c0-1.58-1.28-2.86-2.86-2.86s-2.86,1.28-2.86,2.86,1.28,2.86,2.86,2.86,2.86-1.28,2.86-2.86Z"/>
    <path class="cls-5" d="M361.71,264.69c.8-.47.75-2.89,3.95-3.58,9.11-1.97,7.29,10.63,1.79,10.79-2.83.08-4.42-3.46-7.04-3.95-7.87-1.49-19.44,1.24-27.75-.23l-17.68-16.78c.03,9.45-2.13,19.05.02,28.44.76,3.3,7.93,11.11,11.41,11.57,3.74.5,19.56.58,23.01-.08,4.56-.87,7.54-11.41,13.3.68-.4,4.49-4.81,6.88-8.82,4.85-1.43-.72-1.54-3.25-2.67-3.53-6.65-1.63-23.68,2.05-29.26-.49l-9.8-11.18-.96-34.01-29.68-30.31c-18.68-.86.35-21.18,2.41-1.35l48.03,48.87c1.84.84,28.45,1.04,29.73.28Z"/>
    <path class="cls-21" d="M237.81,262.17c1.8,1.81.16,4.53,1.16,6.28,2.62,4.62,18.69,16.21,19.86,20.15v48.54s-2.27,3.73-2.27,3.73l-57.95,55.94c-.84,1.86-.96,16.03-.5,18.44.44,2.28,2.44,3.04,3.23,4.77,3.78,8.34-9.89,11.06-10.31,2.27-.23-4.76,3.59-4.37,4.08-7,.93-5.07-1.42-15.26.5-19.49l60.22-58.67v-47.54c-.39-1.32-17.7-18.81-19.28-19.77-2.45-1.5-7.42.9-6.51-5.35.36-3.76,5.46-4.63,7.77-2.31Z"/>
    <path class="cls-22" d="M454.64,174.23c-1.09-.65-14.12-.44-15.76.3l-42.5,42.42-67.71-.18-25.12-24.83c-17.28-2.91.18-17.95,2.39-1.39l24.74,24.22,64.71-.82,42.5-42.42c4.05-1.7,11.03.31,15.44-.54,3.28-.63,3.46-4.65,7.95-4.01,7.44,1.07,5.05,13.6-2.47,11.6-3.04-.81-3.46-3.94-4.17-4.36Z"/>
    <path class="cls-23" d="M245.28,393.58c.47.8,2.89.75,3.58,3.95,2.29,10.61-14.84,6.65-9.62-2.06.78-1.3,2.59-1.52,2.82-2.38.74-2.84-.99-7.21.5-10.26l34.24-34.69c-1.16-8.59,2.63-37.93-.74-43.81-1.55-2.69-9.03-7.4-9.84-10.14-1.25-4.21,1.06-11.39-.72-15.26-.98-2.13-24.61-26.63-26.93-28.06-1.53-.94-4.69.3-6.05-1.91-2.43-3.94,3.31-8.53,6.66-4.55.98,1.17.09,2.8.52,3.54.85,1.46,2.68,3.61,3.84,5.01,4.57,5.51,23.09,20.84,24.97,24.98,1.78,3.91-.53,11.05.72,15.26.81,2.74,8.29,7.45,9.84,10.14,3.45,6.01-.48,36.95.74,45.8l-33.82,34.12c-1.24,1.79-1.56,8.88-.71,10.32Z"/>
    <path class="cls-24" d="M367.22,200.32c8.32-5.76,13.43,8.21,5.16,9.66-6,1.05-4.73-3.39-7.94-4.01-7.75-1.5-19.54,1.32-27.78-.19l-29.38-28.56-62.71-.23c-3.8-.73-8.65-9.13-11.95-11.02-2.11-1.21-4.64-.57-6.07-1.92-2.15-2.02-1.85-5.91,1.22-6.84,6.42-1.93,4.38,3.15,6.23,6.37.84,1.46,10.11,10.13,11.57,10.41l62.71.23,29.38,28.56c2.18.65,24.09.72,26.8.22,2.36-.43,2.05-2.18,2.77-2.68Z"/>
    <path class="cls-26" d="M269.23,318.07c-1.78,2.98,1.3,20.07-.73,24.76l-54.91,54.98-.53,39.46c.62,3.14,4.41,1.8,4.1,6.98-.45,7.66-11.85,6.13-11.11-.97.28-2.64,3.72-3.36,4-6.05v-40.73s55.02-54.1,55.02-54.1c.85-.85.85-1.9,1-3,.37-2.78.5-18.65-.03-20.83-.33-1.36-4.78-1.09-4.05-6.14,1.01-6.93,12.14-5.52,11.06,1.88-.46,3.16-3.34,2.94-3.83,3.75ZM269.77,311.1c-3.83-3.75-7.16,3.65-3.23,4.77,2.53.73,5.56-2.49,3.23-4.77Z"/>
    <path class="cls-37" d="M330.21,333.61c-2.41-2.4.03-5.88-.71-7.73l-29.05-29.44c-2.58-9.21,2.33-38.56-1.41-45.06-.77-1.35-20.64-21.26-22.05-21.91-3.46-1.57-8.67.35-12.26-.72-2.86-.85-5.64-7.08-9.22-7.76-2.37-.45-9.41-.34-12.02-.08-2.92.29-5.13,3.67-8.19.8-2.43-2.28,1.24-6.14,3.97-5.57,1.03.21,2,1.57,4.22,1.89,4.05.57,10.08-.96,13.84.15,2.46.73,5.33,6.09,8.46,7.52,5.04,2.3,9.05-.68,12.2.77,5.56,2.55,17.61,19.9,24.06,23.92l1.16,44.8c1.32,1.62,2.4,3.68,3.79,5.2,2.72,2.97,22.46,22.41,24.41,23.54,3.49,2.03,8-.19,7.65,6.44-.23,4.5-6.25,5.83-8.85,3.25Z"/>
    <path class="cls-38" d="M375.72,236.74c.65-.39.67-2.9,2.88-3.6,1.9-.6,5.27-.6,6.83.79,3.9,5.11-1.85,11.41-7.54,8.52-1.66-.84-1.34-3.78-3.43-3.59l-55.77-.13-40.68-41.24c-1.94-.88-30.96-1.07-34.5-.57-3.16.45-5.8,3.89-9.01,1.12-1.02-9.74,4.81-4.61,9.01-4.01,10.74,1.53,24.45-1.68,35.5.46l41.68,42.24h55.04Z"/>
    <path class="cls-39" d="M144.39,104.84c-3.47-3.41,1.32-10.68,6.51-8.04,1.68.86,2.03,3.05,2.95,3.3,1.31.36,10.16.27,11.75-.03,3.75-.72,6.28-7.23,10.04-7.95l71.7-.23c1.6-.48,12.46-12.03,13.16-13.82,1.45-3.73-1.25-8.89,4.07-9.93,3.5-.69,6.48-.14,7.27,3.72,1.61,7.89-5.72,5.92-9.37,8.18-2.91,1.8-10.16,13.67-14.12,14.85-19.56-.01-39.22.71-58.78.25-3.87-.09-7.67-1.85-11.93-1.01-3.71.73-7.19,7.86-10.21,8.76-3.61,1.07-9.03-.52-12.77.22-2.54.5-6.11,5.82-10.26,1.74ZM269.44,73.35c0-1.7-1.38-3.08-3.08-3.08s-3.08,1.38-3.08,3.08,1.38,3.08,3.08,3.08,3.08-1.38,3.08-3.08Z"/>
    <path class="cls-40" d="M430.1,146.26c-1.39,2.35.97,12.4-1.81,17.69l-26.42,26.53-44.45.51c-2.99.59-1.9,3.87-5.97,4.12-9.48.57-7.12-13.59,2.26-9.44,1.6.71,1.5,3.27,3.69,3.35l42.47-.53,26.47-26.47c.84-1.85.92-11.25.5-13.45-.53-2.75-3.27-3.34-3.82-5.23-2.78-9.66,11.96-9.33,10.67-1.01-.47,3.01-3.15,3.19-3.6,3.95ZM347.95,191.99l3.34.8,2.57-3.15c-2.16-5.6-7.57.18-5.92,2.36Z"/>
    <path class="cls-25" d="M219.28,253.14c-1.03,1.74-.25,10.9.92,13.16,3.82,7.42,21.44,19.3,26.87,27.07.96,1.57,1.43,3.49,1.71,5.29.88,5.64,1.2,31.42.05,36.49-1.57,6.96-13.49,8.71-11.78,16.7-2.03.09-6.04.57-6.04-2.51.45-3.23,3.98-3.15,6.08-4.95,1.45-1.24,8.41-8.12,8.74-9.24l.18-37.74-28.82-30.12c-2.7-4.03.78-8.39-.11-12.87-.65-3.23-5.06-1.95-4.02-7.95,1.22-7.01,12.46-4.57,9.82,3.77-.7,2.2-3.23,2.24-3.61,2.88ZM221.08,247.63c0-1.63-1.32-2.96-2.96-2.96s-2.96,1.32-2.96,2.96,1.32,2.96,2.96,2.96,2.96-1.32,2.96-2.96Z"/>
    <path class="cls-28" d="M165.33,130.29c-.64.4-.32,2.51-2.7,2.84-10.24,1.41-6.88-13.5,1.28-9.34,1.86.95,1.62,3.19,3.68,3.35l67.95-.1c2.09-.4,8.56-7.53,9.56-9.42,1.96-3.68-.35-7.82,6.43-6.56,2.89.54,3.47,4.15,2.09,6.09-.81,1.13-4.14.72-6.12,1.86-3.73,2.13-6.83,10.24-10.96,11.02l-71.2.25Z"/>
    <path class="cls-27" d="M335.68,149.18c4.11-1.13,7.95,4.25,5.79,7.86-1.24,2.07-5.46,1.58-7.47,2.52-2.11.99-4.53,5.38-6.48,6.5-3.31,1.9-49.19,1.16-57.04.99-4.77-.11-9.74-1.8-15-1.1-3.11.42-10.05,7.96-11.45.54-1.71-9.01,7.14-4.91,11.45-2.43l68.97-.08c2.06-.4,7.49-5.85,7.98-7.85s-1.2-5.74,3.26-6.97Z"/>
    <path class="cls-29" d="M510.44,154.19c1.59-.53,8.94-.48,10.33.35,1.2.72,5.85,9.16,5.47,10.48-.28.98-5.21,8.51-6.13,8.83-1.55.53-9.01.49-10.34-.32-1.43-.87-5.2-9.35-4.58-11.52.26-.93,4.47-7.56,5.25-7.82Z"/>
    <path class="cls-30" d="M342.15,252.73c4.3,2.54,46.92-1.5,55.26.22,3.23-.63,1.68-4.75,8.01-4.09,10.02,1.05.85,19.18-6.95,6.4-16.62,3.92-39.33-3.23-55.04-.34-2.55.47-4.45,7.24-9.51,2.56-4.03-3.73.15-10.01,5.35-8.38,2.17.68,2.24,3.25,2.89,3.63Z"/>
    <path class="cls-46" d="M387.14,173.25c1.34-1.3,5-.87,7.3-2.18.98-.56,15.45-15.02,15.92-16.05.81-1.78.92-9.46.53-11.48-.53-2.73-3.25-2.4-3.86-4.14-2.98-8.49,9.55-10.66,10.64-2-5.83,5.45-2.64,13.63-5.32,19.61-1.78,3.99-14.01,12.15-16.56,16.5-1.15,1.95.07,3-.35,4.54-2.36,8.75-13.63.36-8.31-4.79ZM414.88,135.06l-3.34-.8-2.57,3.15c2.16,5.6,7.57-.18,5.92-2.36Z"/>
    <path class="cls-32" d="M316.66,369.53c-4.34,5.3-12.41-.37-9.2-6.73.72-1.43,3.25-1.54,3.53-2.67.72-2.93.54-26.99.06-30.84-.25-2-2.23-1.01-2.18-2.89.1-3.71,3.63-6.27,6.18-3.1l.92,2.05c-.69,1.85-1.76,2.81-2.06,4.96-.47,3.32-.28,28.69.57,30.51,1.09,2.36,6.19,3.8,2.18,8.71Z"/>
    <path class="cls-47" d="M233.26,209.19c-.48.28-1.8,3.93-3.27,5.22-.75.66-9.46,5.64-7.91,2.08l10.67-10.32c7.38-1.58,19.92,1.46,26.58-.17,1.35-.33,1.03-4.25,5.11-4.03,7.73.42,7.03,11.11.09,11.11-3.63,0-3.95-3.49-7.02-4.08-2.22-.43-23.21-.42-24.25.19Z"/>
    <path class="cls-45" d="M231.27,233.18c-.73.44-.91,3.14-3.94,3.61-6.44,1-8.81-9.05-3.57-10.63,6.79-2.04,6.05,1.94,8.97,3.61,2.08,1.19,5.13.71,7.27,1.73,4.23,2.01,15.12,18.01,20.96,21.99,2.17,1.48,4.19,1.37,6.16,2.84,2.93,3.28-2.27,7.58-5.7,4.69-1.83-1.89-1.03-4.39-2.34-6.65-1.84-3.18-9.1-8.09-12.08-10.9-3.21-3.03-9.68-13.9-15.74-10.3ZM229.33,231.13c0-1.7-1.38-3.07-3.07-3.07s-3.07,1.38-3.07,3.07,1.38,3.07,3.07,3.07,3.07-1.38,3.07-3.07Z"/>
    <path class="cls-31" d="M166.21,173.92c-.31-.22-1.22-3.54-1.02-4.27,1.06-3.84,6.06.09,8.37.42,10.99,1.56,25.58-1.29,37-.03,3.73.71,7.52,8.08,10.54,9.44,1.6.72,3.83.25,4.99,1,3.31,2.14,1.22,10.12-5.02,7.03-3.08-1.53-.83-4.26-1.91-6.03-.9-1.48-9.11-9.15-10.6-9.44-10.81,1.09-24.58-1.53-35-.07-2.16.3-5.72,3.11-7.35,1.96Z"/>
    <path class="cls-48" d="M452,95.25c.58-.36,10.92-.43,12.33-.17,2.46.46,6.64,9.05,6.49,11.42-.09,1.43-4.86,9.52-5.99,10.07-1.64.8-8.57.85-10.5.5-3.32-.61-5.34-8.86-7.31-11.67l4.97-10.15ZM454,98.25c-4.08,4.62-3.23,15.05,3.28,15.88,12.86,1.64,11.81-14.8,5.06-16.05-1.24-.23-7.68-.24-8.34.17Z"/>
    <path class="cls-36" d="M443.65,239.16c-.9-.53-11.55-.45-13.08,0-3.94,1.14-4.92,8.06-7.38,8.69-3.13.8-6.05-3.68-2.9-5.99,1.71-1.25,4.2-.58,6.15-1.84,1.5-.96,2.1-3.84,3.12-4.09,3.35-.82,9.05.7,12.76,0,2.62-.5,4.11-4.01,6.86-3.77,6.94.63,6.57,13.53-2.65,10.6-2.2-.7-2.24-3.23-2.88-3.61Z"/>
    <path class="cls-34" d="M228.29,400c-1.21,1.96.03,13.24,1.03,16.01.51,1.4,2.14,2.23,2.53,3.47,2.7,8.57-8.8,9.79-9.79,3.73s2.96-5.25,3.79-6.64c.42-.7.51-13.63.19-15.27-.48-2.48-3.29-3.11-3.03-5.95.48-5.29,9.13-4.69,8.12,1.94-.36,2.39-2.44,2.07-2.84,2.7Z"/>
    <path class="cls-33" d="M497.54,181.27l5.04,9.38c.13,1.34-3.82,8.66-4.9,9.73-3.09,3.07-9.45,1.27-13.72,1.44l-5.17-10.38c-.22-2.22,4.31-10.05,6.5-10.44s10.84-1.12,12.24.27ZM495.64,198.83c.35-.22,3.8-6.91,3.81-7.32,0-.72-2.54-5.69-3.18-6.47-2.02-2.46-7.99-3.05-10.47-1.54-.63.38-3.68,6.32-3.76,7.17-.1,1.08,3,7.08,3.67,7.68,1.11,1,9.06,1.03,9.93.48Z"/>
    <path class="cls-35" d="M366.77,155.19l5.16,10.42-4.49,9.41-14.34.82-5.15-10.33c4.18-10.58,7.36-11.86,18.82-10.33ZM355.09,158.19c-2.37,5.2-5,8.56-.62,13.79,2.05,2.45,7.98,3.08,10.47,1.55.49-.3,3.91-6.3,3.99-7.07.71-6.96-8.14-10.33-13.84-8.27Z"/>
    <path class="cls-42" d="M469.98,143.21c5.59-2.15,14.13,1.93,11.76,8.17-4.83,12.69-20.49,2.69-11.76-8.17Z"/>
    <path class="cls-41" d="M587.51,159.82c-.83.48-6.87.5-7.63.04-2.61-4.41-2.61-7.24,0-11.64,3.99-1.84,11.11,1.75,10.63,6.16-.05.5-2.73,5.28-3,5.44Z"/>
    <path class="cls-43" d="M260.19,394.64c-3.4-5.97-4.7-10.91,1.44-15.61l8.45.21c6.89,9.24,2.08,18.18-9.89,15.4ZM270.99,386.78c0-3.05-2.47-5.52-5.52-5.52s-5.52,2.47-5.52,5.52,2.47,5.52,5.52,5.52,5.52-2.47,5.52-5.52Z"/>
    <path class="cls-49" d="M309.82,155.87h-10.67s-3.79-7.3-3.79-7.3l3.83-7.31,10.27-.27,4.23,7.55-3.87,7.33ZM310.26,148.56c0-3.22-2.61-5.83-5.83-5.83s-5.83,2.61-5.83,5.83,2.61,5.83,5.83,5.83,5.83-2.61,5.83-5.83Z"/>
    <path class="cls-44" d="M413.73,82.96c-12.39,6.22-13.53-12.84-1.25-7.94l1.25,7.94Z"/>
    <circle class="cls-50" cx="233.06" cy="115.89" r="5.02"/>
    <path class="cls-12" d="M334.82,185.86c-12.09,2.86-9.63-15.3.65-7.86l-.65,7.86Z"/>
    <path class="cls-13" d="M540.75,166.01c1.14-3.25,5.06-1.45,7.29-1.97.87-.2,1.23-2.12,2.32-2.92,3.22-2.37,8.68,2.87,5.39,6.42-3.84,4.15-9.75-3.75-15-1.52Z"/>
    <circle class="cls-14" cx="517.27" cy="213.82" r="3.66"/>
    <circle class="cls-11" cx="465.11" cy="219.62" r="3.48"/>
    <path class="cls-19" d="M493.66,121.93c-3.69,2.3-8.46-2.89-4.91-5.42,3.85-2.75,7.82,3.61,4.91,5.42Z"/>
    <circle class="cls-17" cx="518.78" cy="139.05" r="3.2"/>
    <circle class="cls-20" cx="537.9" cy="136.9" r="3.09"/>
    <circle class="cls-18" cx="275.86" cy="151.17" r="2.87"/>
    <circle class="cls-16" cx="176.6" cy="151.02" r="2.9"/>
    <circle class="cls-15" cx="285.01" cy="382.32" r="2.88"/>
    <circle class="cls-58" cx="290.06" cy="268.43" r="2.86"/>
    <circle class="cls-59" cx="213.01" cy="115.47" r="2.92"/>
    <circle class="cls-60" cx="366.42" cy="96.03" r="2.86"/>
    <path class="cls-54" d="M269.77,311.1c2.34,2.28-.69,5.5-3.23,4.77-3.93-1.13-.61-8.52,3.23-4.77Z"/>
    <circle class="cls-55" cx="266.35" cy="73.35" r="3.08"/>
    <path class="cls-56" d="M347.95,191.99c-1.65-2.17,3.75-7.96,5.92-2.36l-2.57,3.15-3.34-.8Z"/>
    <circle class="cls-57" cx="218.13" cy="247.63" r="2.96"/>
    <path class="cls-51" d="M414.88,135.06c1.65,2.17-3.75,7.96-5.92,2.36l2.57-3.15,3.34.8Z"/>
    <circle class="cls-52" cx="226.26" cy="231.13" r="3.07"/>
    <path class="cls-53" d="M454,98.25c.66-.41,7.11-.4,8.34-.17,6.74,1.25,7.8,17.69-5.06,16.05-6.51-.83-7.36-11.26-3.28-15.88Z"/>
    <path class="cls-62" d="M495.64,198.83c-.87.55-8.82.51-9.93-.48-.68-.61-3.77-6.6-3.67-7.68.08-.84,3.12-6.78,3.76-7.17,2.49-1.51,8.45-.92,10.47,1.54.64.78,3.19,5.75,3.18,6.47,0,.41-3.46,7.1-3.81,7.32Z"/>
    <path class="cls-63" d="M355.09,158.19c5.7-2.06,14.55,1.31,13.84,8.27-.08.77-3.5,6.76-3.99,7.07-2.49,1.53-8.42.9-10.47-1.55-4.38-5.23-1.75-8.59.62-13.79Z"/>
    <circle class="cls-64" cx="265.47" cy="386.78" r="5.52"/>
    <circle class="cls-61" cx="304.43" cy="148.56" r="5.83"/>
  </g>
  <g>
    <g>
      <path class="cls-9" d="M1080.13,392.96c2.86,0,5.19-2.33,5.19-5.19s-2.33-5.19-5.19-5.19-5.19,2.33-5.19,5.19,2.33,5.19,5.19,5.19Z"/>
      <path class="cls-9" d="M1060.88,420.14c-2.86,0-5.19,2.33-5.19,5.19s2.33,5.19,5.19,5.19,5.19-2.33,5.19-5.19-2.33-5.19-5.19-5.19Z"/>
      <path class="cls-9" d="M1107,433.82l-3.79-8.81h-15.53l-12.04-18.17c.14-.46.23-.95.23-1.46,0-2.86-2.33-5.19-5.19-5.19s-5.19,2.33-5.19,5.19c0,2.66,2.02,4.83,4.6,5.13l14.02,21.16h14.72l2.15,4.99c-.3.66-.48,1.39-.48,2.16,0,2.86,2.33,5.19,5.19,5.19s5.19-2.33,5.19-5.19c0-2.41-1.65-4.41-3.87-5Z"/>
      <path class="cls-9" d="M1104.25,379.5c-4.79-9.25-10.34-15.78-23.06-15.78s-18.38,6.53-23.05,15.78l-30.46,59.72h10.58c3.72,0,7.12-2.08,8.82-5.38l6.7-13.01,19.69-38.18c1.63-3.15,3.7-5.12,7.72-5.12s6.1,1.97,7.73,5.12l12.26,23.78h-8.04c-.95-1.13-2.36-1.86-3.95-1.86-2.86,0-5.19,2.33-5.19,5.19s2.33,5.19,5.19,5.19c1.59,0,3-.73,3.95-1.86h11.47l3.99,7.74,9.46,18.39h16.76l-30.57-59.72Z"/>
    </g>
    <path class="cls-9" d="M467.85,402.11c0,24.48,9.14,37.2,35.9,37.2h58.85v-15.23h-58.85c-17.84,0-20.02-7.72-20.02-21.97s2.18-22.08,20.02-22.08h58.85v-15.12h-58.85c-26.76,0-35.9,12.73-35.9,37.2Z"/>
    <path class="cls-9" d="M592.19,408.53v-43.62h-15.56v43.62c0,22.3,11.31,30.78,35.9,30.78h49.6v-15.23h-49.6c-15.66,0-20.34-3.37-20.34-15.56Z"/>
    <g>
      <path class="cls-9" d="M719.27,393.05c2.86,0,5.19-2.33,5.19-5.19s-2.33-5.19-5.19-5.19-5.19,2.33-5.19,5.19,2.33,5.19,5.19,5.19Z"/>
      <path class="cls-9" d="M700.02,420.23c-2.86,0-5.19,2.33-5.19,5.19s2.33,5.19,5.19,5.19,5.19-2.33,5.19-5.19-2.33-5.19-5.19-5.19Z"/>
      <path class="cls-9" d="M746.14,433.91l-3.79-8.81h-15.53l-12.04-18.17c.14-.46.23-.95.23-1.46,0-2.86-2.33-5.19-5.19-5.19s-5.19,2.33-5.19,5.19c0,2.66,2.02,4.83,4.6,5.13l14.02,21.16h14.72l2.15,4.99c-.3.66-.48,1.39-.48,2.16,0,2.86,2.33,5.19,5.19,5.19s5.19-2.33,5.19-5.19c0-2.41-1.65-4.41-3.87-5Z"/>
      <path class="cls-9" d="M743.39,379.59c-4.79-9.25-10.34-15.78-23.06-15.78s-18.38,6.53-23.05,15.78l-30.46,59.72h10.58c3.72,0,7.12-2.08,8.82-5.38l6.7-13.01,19.69-38.18c1.63-3.15,3.7-5.12,7.72-5.12s6.1,1.97,7.73,5.12l12.26,23.78h-8.04c-.95-1.13-2.36-1.86-3.95-1.86-2.86,0-5.19,2.33-5.19,5.19s2.33,5.19,5.19,5.19c1.59,0,3-.73,3.95-1.86h11.47l3.99,7.74,9.46,18.39h16.76l-30.57-59.72Z"/>
    </g>
    <path class="cls-9" d="M855.97,403.41c0,17.84-6.09,21.87-30.46,21.87s-30.57-4.03-30.57-21.87v-38.51h-15.56v38.51c0,26.87,12.73,36.99,46.12,36.99s46.01-10.12,46.01-36.99v-38.51h-15.56v38.51Z"/>
    <path class="cls-9" d="M950.07,364.9h-61.14v74.41h61.14c26.65,0,35.79-12.73,35.79-37.2s-9.14-37.2-35.79-37.2ZM950.07,424.08h-45.58v-44.06h45.58c17.73,0,19.91,7.83,19.91,22.08s-2.18,21.97-19.91,21.97Z"/>
    <rect class="cls-9" x="1000.97" y="364.9" width="15.56" height="74.41"/>
  </g>
</svg>